<?xml version="1.0" encoding="UTF-8" standalone="no"?>
<!-- Created with Inkscape (http://www.inkscape.org/) -->

<svg
   xmlns:dc="http://purl.org/dc/elements/1.1/"
   xmlns:cc="http://creativecommons.org/ns#"
   xmlns:rdf="http://www.w3.org/1999/02/22-rdf-syntax-ns#"
   xmlns:svg="http://www.w3.org/2000/svg"
   xmlns="http://www.w3.org/2000/svg"
   xmlns:sodipodi="http://sodipodi.sourceforge.net/DTD/sodipodi-0.dtd"
   xmlns:inkscape="http://www.inkscape.org/namespaces/inkscape"
   width="42"
   height="42"
   id="svg2"
   version="1.1"
   inkscape:version="0.48.5 r10040"
   sodipodi:docname="icon.svg"
   inkscape:export-filename="/home/lucas/dev/clojurecalc/logo.png"
   inkscape:export-xdpi="90"
   inkscape:export-ydpi="90">
  <defs
     id="defs4" />
  <sodipodi:namedview
     id="base"
     pagecolor="#ffffff"
     bordercolor="#666666"
     borderopacity="1.0"
     inkscape:pageopacity="0.0"
     inkscape:pageshadow="2"
     inkscape:zoom="16"
     inkscape:cx="31.37326"
     inkscape:cy="24.027307"
     inkscape:document-units="px"
     inkscape:current-layer="layer1"
     showgrid="false"
     inkscape:window-width="1920"
     inkscape:window-height="1056"
     inkscape:window-x="1440"
     inkscape:window-y="24"
     inkscape:window-maximized="1" />
  <metadata
     id="metadata7">
    <rdf:RDF>
      <cc:Work
         rdf:about="">
        <dc:format>image/svg+xml</dc:format>
        <dc:type
           rdf:resource="http://purl.org/dc/dcmitype/StillImage" />
        <dc:title></dc:title>
      </cc:Work>
    </rdf:RDF>
  </metadata>
  <g
     inkscape:label="Layer 1"
     inkscape:groupmode="layer"
     id="layer1"
     transform="translate(0,-1010.3622)">
    <path
       style="fill:#00a1a1;fill-opacity:1;stroke:#000000;stroke-width:1.17809414999999995;stroke-opacity:1"
       d="m 4.5554887,1011.3943 24.5190853,0 9.130231,6.9213 0,33.2075 -33.6493163,0 z"
       id="rect2985"
       inkscape:connector-curvature="0"
       sodipodi:nodetypes="cccccc" />
    <path
       style="fill:#000000;fill-opacity:1;stroke:none"
       d="m 30.73127,1010.7684 8.099398,0 0,5.9641 c -5.302588,-3.8897 -3.298157,-2.6015 -8.099398,-5.9641 z"
       id="rect2985-4"
       inkscape:connector-curvature="0"
       sodipodi:nodetypes="cccc" />
    <path
       style="fill:#1a1a1a;fill-opacity:0.47945204;fill-rule:evenodd;stroke:none"
       d="m 84.734147,1032.2685 c 0.07237,0.2325 0.0077,0.014 0.01366,0.2333 0.166621,6.2744 0.07458,3.4623 0.07458,15.2386 0,0.358 0.134188,0.036 -0.218426,0.036 -10.431961,-3e-4 -11.268654,0.1989 -20.09319,0.086 -0.140008,-0 -0.08487,-0.024 -0.08487,-0.024 -3.24381,-4.0073 -3.702896,-4.3162 -8.363322,-10.9298 -0.32962,-0.4677 8.140855,3.4378 -0.109147,-4.7966 -5.783969,-5.773 5.562108,-15.0466 13.734069,-15.0466 8.171962,0 8.827897,-4.7816 15.046647,15.2029 z"
       id="path3775-7"
       inkscape:connector-curvature="0"
       sodipodi:nodetypes="ssssssssss" />
    <path
       sodipodi:type="arc"
       style="fill:#00a1a1;fill-opacity:1;fill-rule:evenodd;stroke:none"
       id="path3775"
       sodipodi:cx="21.96875"
       sodipodi:cy="24.65625"
       sodipodi:rx="7.90625"
       sodipodi:ry="7.90625"
       d="m 29.875,24.65625 c 0,4.366501 -3.539749,7.90625 -7.90625,7.90625 -4.366501,0 -7.90625,-3.539749 -7.90625,-7.90625 0,-4.366501 3.539749,-7.90625 7.90625,-7.90625 4.366501,0 7.90625,3.539749 7.90625,7.90625 z"
       transform="matrix(1.8715126,0,0,1.8715126,27.140613,982.00202)" />
    <path
       style="fill:#60ba60;fill-opacity:1;fill-rule:evenodd;stroke:none"
       d="m 83.095194,1028.6211 c 0,8.1719 -6.624684,14.7965 -14.796647,14.7965 -8.171962,0 -14.796647,-6.6246 -14.796647,-14.7965 0,-8.172 8.420252,-9.8802 10.741589,-4.9611 10.155266,21.5195 18.851705,4.0365 18.851705,4.9611 z"
       id="path3775-6"
       inkscape:connector-curvature="0"
       sodipodi:nodetypes="sssss" />
    <path
       sodipodi:type="arc"
       style="fill:none;stroke:#ffffff;stroke-opacity:1"
       id="path3815"
       sodipodi:cx="27.65625"
       sodipodi:cy="29.28125"
       sodipodi:rx="7.96875"
       sodipodi:ry="7.96875"
       d="m 35.625,29.28125 c 0,4.401019 -3.567731,7.96875 -7.96875,7.96875 -4.401019,0 -7.96875,-3.567731 -7.96875,-7.96875 0,-4.401019 3.567731,-7.96875 7.96875,-7.96875 4.401019,0 7.96875,3.567731 7.96875,7.96875 z"
       transform="matrix(0.97812251,0,0,0.97812251,41.244184,999.9139)" />
    <path
       style="fill:#ffffff;fill-opacity:1;fill-rule:evenodd;stroke:none"
       d="m 82.907954,1028.5077 c 0.07363,5.374 -2.7318,7.2582 -4.709214,7.6545 -2.170312,0.4348 -5.239204,1.3844 -13.21372,-10.4573 -6.517268,-9.6778 -11.670359,5.2515 -11.670359,2.8028 0,-7.8038 9.963562,-10.615 12.287837,-5.6974 8.535386,18.0589 17.29279,4.7729 17.305456,5.6974 z"
       id="path3775-6-3"
       inkscape:connector-curvature="0"
       sodipodi:nodetypes="ssssss" />
    <path
       style="fill:#ffffff;fill-opacity:1;fill-rule:evenodd;stroke:none"
       d="m 65.755119,1033.7824 c 0.607212,2.4954 0.01327,1.5076 -0.515416,1.5094 -3.54905,0.013 -0.662678,0.9651 -1.030832,-2.0248 -0.176425,-1.4327 2.858373,-6.7373 3.607913,-4.7492 0.186499,0.4947 -2.777251,2.3238 -2.061665,5.2646 z"
       id="path3841"
       inkscape:connector-curvature="0"
       sodipodi:nodetypes="sssss" />
    <path
       style="fill:#60ba60;fill-opacity:1;fill-rule:evenodd;stroke:none"
       d="m 5.1445312,1033.5341 4.6247476,-6.0686 c 4.8555582,-1.1092 5.5955012,-2.5538 10.9161092,5.4301 2.655682,3.985 12.654894,8.2492 16.927893,2.1385 l 0,15.8984 -32.4687498,0 z"
       id="rect3013"
       inkscape:connector-curvature="0"
       sodipodi:nodetypes="ccscccc" />
    <path
       style="fill:#ffffff;fill-opacity:1;fill-rule:evenodd;stroke:none"
       d="m 37.670792,1033.7452 c 0.08109,5.374 -3.008721,7.2582 -5.186584,7.6545 -2.390316,0.4348 -5.7703,1.3844 -14.553188,-10.4573 -7.17792,-9.6778 -12.8533769,5.2515 -12.8533769,2.8028 0,-7.8038 10.9735629,-10.615 13.5334479,-5.6974 9.400614,18.0589 19.045751,4.7729 19.059701,5.6974 z"
       id="path3775-6-3-8"
       inkscape:connector-curvature="0"
       sodipodi:nodetypes="ssssss" />
    <path
       sodipodi:type="arc"
       style="fill:none;stroke:#ffffff;stroke-opacity:1"
       id="path3815-8"
       sodipodi:cx="27.65625"
       sodipodi:cy="29.28125"
       sodipodi:rx="7.96875"
       sodipodi:ry="7.96875"
       d="m 35.625,29.28125 c 0,4.401019 -3.567731,7.96875 -7.96875,7.96875 -4.401019,0 -7.96875,-3.567731 -7.96875,-7.96875 0,-4.401019 3.567731,-7.96875 7.96875,-7.96875 4.401019,0 7.96875,3.567731 7.96875,7.96875 z"
       transform="matrix(1.5131779,0,0,1.5131779,-20.880075,987.77326)" />
    <path
       style="fill:#ffffff;fill-opacity:1;fill-rule:evenodd;stroke:none"
       d="m 18.179044,1042.2614 c 0.804308,3.3799 -0.41993,0.8545 -1.120216,0.857 -4.701043,0.018 -0.690278,0.1196 -1.240432,-0.8051 -0.999354,-1.6797 4.411179,-11.5628 5.404013,-8.87 0.247035,0.6701 -3.991224,4.835 -3.043365,8.8181 z"
       id="path3841-2"
       inkscape:connector-curvature="0"
       sodipodi:nodetypes="sssss" />
    <path
       style="fill:#1a1a1a;fill-opacity:0.47945204;fill-rule:evenodd;stroke:none"
       d="m 38.061532,1037.8937 c 0.07237,0.2325 0.0077,0.014 0.01366,0.2333 0.166621,6.2744 0.07458,0.9623 0.07458,12.7386 0,0.358 0.134188,0.036 -0.218426,0.036 -10.431961,-3e-4 -8.956154,0.1989 -17.78069,0.086 -0.140008,0 -0.02237,-0.086 -0.02237,-0.086 -4.55631,-5.0698 -4.327896,-4.8162 -9.925822,-11.6798 -0.3616403,-0.4434 6.508446,9.7858 17.328353,3.8284 0.358481,-0.1974 0.715076,-0.3793 1.014446,-0.6198 7.75089,-6.2245 4.901348,-13.7525 3.677794,-16.3053 -0.514989,-1.0744 3.93825,6.4377 4.041829,6.6285 1.840499,3.39 1.805589,3.352 1.796647,5.1404 z"
       id="path3775-7-4"
       inkscape:connector-curvature="0"
       sodipodi:nodetypes="csssssssssssc" />
  </g>
</svg>
